<svg id="Layer_1" data-name="Layer 1" xmlns="http://www.w3.org/2000/svg" viewBox="0 0 663.5 723.13"><defs><style>.cls-1{fill:#748b6b;}</style></defs><title>Vector Smart Object1</title><path class="cls-1" d="M1894.58,713.61c7.56-2.52,20.16-3.36,23.52-12.59-2.52-3.36-4.2-5-8.4-6.72-11.76-2.52-21,11.76-31.08,11.76,3.36-4.2,8.4-7.56,10.08-14.28,6.72-6.72,22.68-21.84,11.76-32.76-14.28,6.72-11.76,35.28-24.36,39.48-1.68-5.88,2.52-7.56,3.36-10.92.84-10.08,2.52-27.72-9.24-28.56-5.88,8.4-5.88,26.88,1.68,32.76-1.68,10.92-2.52,23.51-11.76,28.55-6.71-19.31,6.72-42-10.07-54.59-2.52,6.72-5,14.28-4.2,21,0,9.24,5.88,12.6,7.56,18.48,2.52,6.71,0,14.27,2.52,21.83-2.52,0-1.68,4.2-4.2,3.36-2.52-10.08,4.2-23.51-10.08-25.19-5.88,11.75.84,21.83,5,31.07-7.56,8.4-14.28,18.48-24.36,24.36-8.4-26.88,7.56-38.64,3.36-68-5-2.52-.84-9.24-7.56-10.92-4.2,0-8.4,7.56-10.08,12.6,5.88,8.4-.84,21.83,1.68,32.75,2.52,13.44,5.88,24.36,6.72,38.64-5.88,4.2-10.08,10.91-16.8,13.43,5.88-20.15-7.55-37-11.75-55.43,1.68-5.88-1.68-8.4-6.72-10.08-11.76,25.2,1.68,52.08,13.43,69.71-5.87,6.72-15.11,14.28-21,16.8-1.68-16.8,3.36-47-16-49.55-.84,19.32,7.56,36.95,12.6,54.59-21,15.12-42,34.43-60.47,47.87,4.2-9.24,1.68-22.67,7.56-30.23,0-1.68-4.2,0-2.52-3.36,10.92-4.2,18.47-11.76,21-24.36-9.23-7.56-15.95,4.2-21.83,8.4-.84-9.24.84-20.16-.84-27.72,10.92-4.19,26-13.43,21.83-26.87-12.59-2.52-12.59,15.12-21.83,19.32,0-7.56-1.68-17.64,5-18.48,1.68-8.4,3.36-21,0-28.56-3.36-2.52-6.72-3.36-10.92-.84-3.36,11.76-2.52,22.68,2.52,31.92-3.36,5.88-1.68,18.48-2.52,23.51-5.88-9.23-3.36-26.87-16-28.55-.84.84-2.52,1.68-3.36,2.52,3.36,12.6,5.88,23.52,11.76,34.43,2.52,4.2,7.56,6.72,9.24,11.76,1.68,4.2,0,10.08,0,15.12-5-6.72-6.72-16-16.8-16-3.36,15.12,14.28,23.52,15.12,37.8,1.68,13.43-8.4,22.67-10.08,33.59-21,16.8-38.63,41.15-58,57.11,2.52-6.72,5.88-13.44,5-22.67,17.63-8.4,26-25.2,28.55-48.72-3.36.84-2.52-2.52-5-2.52-5,5-10.91,15.12-16,16.8,0-5.88,1.68-15.12,0-22.68,13.43-5.88,27.71-15.11,25.19-34.43-2.52.84-1.68-2.52-5-1.68-6.72,8.4-16,14.28-21,23.52-2.52-13.44.84-30.24.84-40.32,2.52,2.52,4.2.84,8.4,0,9.23-7.56,21-16.79,21-31.07a7.18,7.18,0,0,1-5-2.52c-9.24,3.36-13.44,16.8-21.83,18.47.84-5,.84-9.23.84-16,10.07-4.2,17.63-14.28,20.15-23.52-2.52-.84-3.36-2.52-6.72-2.52-5.88,3.36-10.91,13.44-15.11,15.12,1.68-13.44,5.88-37.8-11.76-40.32a15.5,15.5,0,0,0-4.2,10.08c-.84,9.24,4.2,13.44,8.4,21.84,5,11.76,3.36,24.36,1.68,36.11-5-10.07-4.2-33.59-21.84-26,1.68,17.64,10.92,27.71,21,36.95,0,10.08-1.68,17.64-3.36,26.88-4.2-11.76-10.08-26.88-20.16-30.24-8.4,22.68,10.08,37,21.84,47.88,1.68,13.43.84,21,.84,34.43-5-3.36-10.08-7.56-13.44-12.6.84-18.47-15.12-34.43-27.72-36.11-1.68,4.2-.84,5.88-2.52,9.24,4.2,8.4,6.72,18.47,14.28,23.51,2.52,1.68,5.88,0,8.4,1.68,3.36,1.68,6.72,7.56,10.08,10.92s6.72,6.72,10.92,9.24c-2.52,11.76-4.2,23.52-8.4,32.75-1.68-16.79-10.92-26.87-20.16-36.11-1.68-5-2.52-10.92-10.08-10.08-7.56,25.2,16.8,41.16,27.72,57.11-4.2,10.08-4.2,24.36-14.28,27.72-.84,2.52.84,3.36.84,5-21,21.83-39.47,50.39-57.95,71.39,1.68-12.6-1.68-28.56-4.2-43.68,1.68,0,5,.84,8.4-.84,10.92-5.88,37-58.79,12.6-58.79-3.36,17.64-17.64,30.24-23.52,47.88-4.2-17.64-7.56-31.92-10.08-50.4,1.68,0,1.68.84,3.36.84,10.08-16.79,29.4-24.35,30.24-51.23a25.15,25.15,0,0,0-8.4-3.36c-11.76,10.92-18.48,26.88-27.72,39.48-.84-18.48-3.36-35.28-2.52-51.24,8.4-5,16.8-10.08,19.32-21,3.36-3.36,8.4-5.88,8.4-12.6-2.52-.84-3.36-2.52-6.72-2.52-6.72,6.72-12.6,14.28-19.32,21,3.36-21.84,20.16-31.08,14.28-55.44-4.2-2.52-4.2-8.39-12.6-7.55-4.2,9.23-3.36,27.71.84,38.63-10.92,11.76-13.44,36.11-12.6,54.59-8.39-11.76-10.91-33.59-26.87-35.27.84,23.51,13.44,34.43,24.35,47,.84,2.52,4.2-.84,4.2.84,0,17.64,5.88,33.59,4.2,48.71-5.88-16-16-26.87-31.91-32.75-.84,1.68-1.68,3.36-3.36,4.2.84,1.68,3.36,2.52,4.2,4.2,4.2,20.15,24.35,23.51,31.91,40.31,1.68,0,3.36,0,3.36.84a284.65,284.65,0,0,1,6.72,28.55c-5.88-7.55-12.6-12.59-21.83-16.79-2.52-3.36-6.72-7.56-10.08-2.52-.84,19.31,22.67,22.67,31.07,37,.84,1.68,5,0,5,1.68,3.36,14.28.84,31.08,0,44.51-14.28,18.48-24.35,39.48-37.79,58.8,0,1.68,0,3.36.84,4.2-1.68-.84-2.52-.84-3.36,0-9.24,16.79-18.48,34.43-26.88,51.23,4.2-26-5-46.2-9.24-68,4.2-2.52,4.2-9.24,6.72-14.28,2.52.84,2.52-1.68,4.2-.84,3.36-7.56,23.52-46.19,5-49.55-11.76-2.52-20.16,26-13.44,43.67-3.36,1.68-1.68,8.4-6.72,9.24-6.71-17.64-11.75-37-19.31-52.91.84-1.68,3.36-1.68,4.2-3.36,5-17.64,30.23-32.76,19.31-52.07-18.47,1.68-26,21.83-30.23,42-4.2-14.28-11.76-24.36-12.6-42,20.16-7.56,30.24-26,38.63-45.36-1.68-5-.84-11.76-9.23-10.08-1.68,4.2-.84,5.88-1.68,10.08-13.44,6.72-24.36,16-31.08,30.24-1.68-13.44-3.36-26.88-2.52-42.83,16.8,0,26.88-16.8,31.92-28.56-17.64-4.2-21.84,15.12-31.92,19.32,2.52-6.72.84-15.12,3.36-21.84,1.68-4.2,6.72-5.88,8.4-9.24,6.72-12.6,4.2-28.55-.84-40.31h-8.4c-10.92,11.76,3.36,41.15-7.56,48.71-7.56-9.24-9.24-31.92-23.51-27.72-1.68,19.32,10.07,32.76,21.83,42.84-2.52,15.12-1.68,29.39-.84,45.35-3.36-5-9.24-8.4-15.12-14.28s-10.91-19.31-20.15-15.11c-5.88,23.51,18.47,40.31,37,38.63a143.54,143.54,0,0,0,10.92,49.55c-9.24-15.12-28.56-25.19-42.83-32.75-1.68-1.68-1.68.84-4.2,0-8.4,21,29.39,39.47,51.23,42.83,7.56,21,17.64,43.67,22.68,63.83-10.08-3.36-16.8-16.8-26.88-26.88-5.88-5.87-30.24-18.47-34.43-8.39,7.55,25.19,36.11,42,65.51,46.19,4.19,16.8,12.59,37,13.43,58,.84,12.6-3.36,24.36-5,37-.84,3.36,3.36,1.68,3.36,4.2-23.51,52.08-37.79,114.23-49.55,178.06-6.72-16-15.12-30.24-23.52-43.68,0-2.52,3.36-1.68,2.52-4.2-6.71-9.24,1.68-26,.84-34.43,1.68,0,2.52-1.68,4.2-3.36,7.56-22.68,12.6-58.79-10.91-68-16,12.6-9.24,56.27.84,69.71-5,6.72-4.2,18.48-7.56,26-10.08-18.47-24.36-32.75-34.44-52.07,3.36.84,3.36-1.68,3.36-3.36-1.68-8.4-2.52-20.15,0-30.23,1.68-8.4,7.56-10.92,11.76-16.8,4.2-6.72,13.44-23.52,10.92-33.59s-16,0-19.32,2.52c-10.08,10.07-16.8,34.43-8.4,46.19-3.36,6.72-4.2,16-6.72,24.35-7.56-11.75-13.43-24.35-20.15-37,10.91-2.52,21.83-34.43,21-44.51,0-3.36-3.36-6.72-5-9.24-16,3.36-16.79,22.67-23.51,35.27-1.68-9.24-10.08-17.63-10.92-26.87,0-7.56,5.88-12.6,6.72-21,10.92-9.24,27.71-16.8,24.35-37-17.63-7.56-35.27,17.63-28.55,34.43-2.52,2.52-2.52,6.72-6.72,8.4-3.36-12.6-7.56-28.56-4.2-44.51,21.84-9.24,36.95-26,48.71-45.36-19.31-14.27-27.71,16.8-42,22.68,2.52-16,2.52-33.6-3.36-45.35,5,.84,4.2-5,6.72-7.56,9.24-4.2,21-10.92,21-21.84-15.12-10.92-24.36,10.92-31.92,19.32-5.88-21,1.68-44.52,2.52-65.51-18.48-2.52-26.88,33.59-13.44,45.35,5,26.88,21.84,61.31,5,86.51-9.24-2.52-11.76-14.28-18.48-21-5.88-5.88-18.47-10.08-19.31,2.52,0,9.24,22.67,30.24,35.27,27.72-.84,17.63.84,37,6.72,52.07-16-6.72-23.52-21.84-42.83-25.2-1.68,2.52-4.2,3.36-4.2,6.72,12.6,16,25.19,31.08,51.23,33.6,4.2,10.92,9.24,20.15,12.6,31.91-13.44-6.72-33.6-10.92-50.39-6.72,4.2,22.68,40.31,16.8,57.11,18.48,5.88,13.44,13.44,24.36,19.31,36.95-16.79-6.72-31.91-16.79-51.23-11.75,0,2.52-1.68,3.36-1.68,6.71,12.6,11.76,37,20.16,58,11.76,5.88,11.76,15.12,21,21,33.6-9.24,1.68-21.84.84-30.24-.84-1.67-5-8.39-4.2-10.91-4.2-5-.84-10.92-5-18.48-6.72-16.8-2.52-37-1.68-36.12,10.92,18.48,8.4,47,15.12,66.35,6.72,9.24,3.36,26,3.36,35.28.84,6.72,13.43,19.32,25.19,22.68,38.63-6.72-1.68-15.12-.84-20.16,0-.84-2.52,1.68-2.52.84-5-10.08.84-14.28-2.52-25.2-2.52-5-3.36-13.44-5.88-21-6.72-7.56,0-29.4,4.2-28.56,11.76s28.56,13.44,37.79,13.44c8.4,0,16.8-5,25.2-5,13.44-.84,26.88,1.68,37,2.52,9.24,11.76,14.28,30.23,16.8,46.19,0,2.52-.84,5-.84,7.56h5c2.52-18.48,5.88-37,9.24-54.59.84-1.68,5,0,6.72-1.68,1.68-7.56,9.24-14.28,16-20.16,21-15.11,43.67-21.83,62.15,0-2.52,21,5.88,37.8,15.11,49.56,8.4,3.35,10.08,13.43,19.32,16,7.56-13.44-9.24-31.07-8.4-49.55-10.08-17.64-31.07-25.2-46.19-38.63,20.16-7.56,42-14.28,67.19-15.12,1.68,6.72,6.72,6.72,10.08,11.76,6.72,10.08,3.36,20.15,5,33.59,1.68,15.12,10.92,28.56,21.83,34.44,1.68-18.48-.84-42.84-14.27-52.92-1.68-11.75-10.08-21-13.44-27.71,16.8-.84,31.07-3.36,46.19-5,1.68,26,16.8,44.51,42,45.35-7.55-17.63-18.47-31.91-27.71-47.87,9.24-.84,15.12-3.36,25.19-2.52,6.72,16,20.16,28.56,37.8,31.08,1.68,1.68,2.52,3.36,4.2,4.2,2.52-5.88,16-2.52,13.44-10.92-5.88,0-6.72-6.72-14.28-4.2-5-10.92-16.8-16-25.2-23.52,5-.84,9.24-3.36,12.6-5,1.68,3.36,5.88,8.4,10.08,11.76,7.56,5,22.68,11.76,30.23,8.4-3.35-15.12-20.15-16-28.55-25.2,10.08-1.68,13.44-10.92,23.52-10.92,8.39-8.39,17.63-15.11,21.83-27.71-1.68-5,0-12.6-6.72-12.6-13.43,9.24-17.63,36.12-37.79,42.83,5.88-5,16-26,.84-28.55-6.72,10.08-8.4,23.51-12.6,35.27-6.72,1.68-14.28,7.56-20.16,7.56,8.4-5.88,16.8-23.51,6.72-33.59-18.47,3.36-16,27.71-26.87,37.79-15.12-.84-26,5.88-37.8,3.36,6.72-8.4,19.32-39.47,2.52-46.19-11.76,10.08-6.72,37-16,49.55-13.43,0-29.39,3.36-39.47,3.36,5.88-10.08,25.2-26.88,28.56-39.47.84-1.68.84-7.56-.84-10.08-8.4-10.92-21,10.92-23.52,18.47-5.88,13.44-6.72,26-16,33.6-8.4,1.68-14.28,4.2-22.67,3.36,2.52-5,2.52-8.4,2.52-13.44,1.68,0,3.35,0,2.51-1.68,5.88-9.24,14.28-20.16,15.12-36.11.84-7.56,4.2-22.68-5-23.52-15.11,16.8-24.35,40.31-21.83,71.39-1.68,3.36-8.4,5-7.56,9.24-13.44,5-21.84,9.24-34.44,14.28,3.36-8.4,2.52-16,7.56-24.36,4.2-7.56,11.76-10.92,16-16.8,6.72-10.08,10.92-27.71,10.92-43.67,0-4.2.84-15.12-7.56-14.28-6.72,16.8-23.52,32.76-24.36,54.59,0,3.36,1.68,7.56.84,10.92-.84,9.24-10.08,17.64-8.4,26.88-13.43,8.4-21.83,27.71-33.59,35.27,11.76-58,29.39-109.18,49.55-157.89,16.8-19.32,39.48-33.6,68.87-40.32,4.2,8.4,15.12,9.24,20.16,18.48,6.72,10.92,6.72,21.84,14.28,31.07,4.2,4.2,10.91,10.92,16.79,13.44,3.36,1.68,7.56.84,10.92,1.68s5,4.2,9.24,3.36c1.68-5.88-3.36-10.08-4.2-15.12s.84-10.92-.84-13.43c-7.56-15.12-26.88-32.76-46.19-28.56-4.2-4.2-10.08-7.56-12.6-12.6,16-4.2,37-6.72,51.23-8.4,5.88,20.16,18.48,32.76,37.8,39.48,2.52-12.6-13.44-32.76-21.84-39.48,16,0,25.2.84,39.47,1.68,3.36,7.56,5,16.8,11.76,24.36,5.88,6.72,14.28,7.56,19.32,10.92,5,2.52,9.24,10.08,12.6.84-6.72-13.44-16.8-24.36-26.88-34.44,15.12,2.52,32.76-1.68,45.35-7.56,5.88,9.24,24.36,6.72,33.6,13.44,5.88-10.08-9.24-12.6-9.24-22.67,4.2-4.2,11.76-5,11.76-12.6-21.84-13.44-30.24,19.31-49.55,16.79,4.19-2.52,4.19-8.39,9.24-10.07-.84-7.56,9.23-19.32-1.68-24.36-11.76,10.08-17.64,26-26,38.63-15.12,0-31.92-2.52-43.67-3.36,12.59-6.72,33.59-27.71,16.79-42.83a38.59,38.59,0,0,0-14.27,7.56c-1.68,16-14.28,22.68-16,35.27-17.64-1.68-25.2,0-43.67.84,9.23-7.56,35.27-44.51,11.75-50.39-12.6,12.6-15.12,34.44-26.87,47-2.52.84,1.68,4.2-.84,5-14.28,3.36-31.92,8.4-43.68,11.76,2.52-5,7.56-7.56,9.24-13.44,24.36-8.39,38.64-27.71,40.32-58.79a22.27,22.27,0,0,0-5-4.2c-4.2,5-11.76,6.72-13.44,14.28-21,7.56-24.36,31.92-31.92,53.75-10.91,11.76-26,24.36-39.47,30.24,23.52-42.83,48.71-83.15,76.43-120.94,1.68,0,.84,2.52,3.36,1.68a85.39,85.39,0,0,1,51.23-9.24c1.68,2.52-1.68,3.36,0,6.72,8.4,10.92,23.52,25.19,38.63,28.55,3.36.84,10.92,1.68,13.44-2.52-7.56-16-22.67-23.51-37.79-32.75,18.47,1.68,23.51,2.52,42-.84.84,11.76,10.08,15.12,16.8,20.16,5.88,3.35,8.4,11.75,14.28,10.91,5.87-17.63-10.08-27.71-21.84-34.43,9.24,0,21.84-7.56,34.43-2.52-4.19,21,5.88,34.43,15.12,45.35,1.68.84,6.72.84,8.4,0-3.36-1.68,3.36-1.68,1.68-4.2-.84-2.52-5-1.68-4.2-4.2,2.52-12.59-5.88-26-6.72-35.27,18.48-.84,26,11.76,47,11.76.83,1.68,0,5,2.51,4.2,8.4-1.68,16.8-2.52,18.48-10.08,2.52-14.28-16.8-12.6-22.67-2.52-8.4.84-14.28-1.68-18.48-5,9.24-1.68,18.48-15.12,9.24-22.68-12.6,2.52-24.36,9.24-31.92,19.32-6.72-3.36-18.48-1.68-26.87-3.36,3.36-7.56,21-14.28,21.83-23.52.84-5.88-2.52-9.23-6.72-10.07-5-.84-18.47,9.23-23.51,15.95-4.2,5.88-5,10.92-12.6,12.6-1.68,3.36,2.52,5,.84,6.72-8.4,1.68-15.12,4.2-23.52,5,4.2-10.08,22.68-23.52,10.92-35.28-16.8,5.88-20.16,25.2-31.07,37-4.2-1.68-17.64-.84-24.36-2.52,11.76-8.4,37.79-17.64,26.87-36.11-22.67,7.55-35.27,26-54.59,37.79-6.71,0-18.47,2.52-25.19,5,0-.84.84-.84.84-1.68,7.56-12.6,21.83-25.2,32.75-38.64,2.52-3.35,3.36-6.71,5-10.07,1.68-1.68,5-2.52,7.56-5,5.88-5.88,9.24-14.28,14.28-16.8,2.52-1.68,6.72-.84,9.24-1.68,1.68-.84,3.36-3.36,5-4.2,9.23-5,18.47-5.88,28.55-6.72-2.52.84-4.2,2.52-4.2,5,9.24,14.28,23.52,33.6,43.67,28.56,2.53-24.36-26-18.48-31.07-35.28,18.48-.84,31.92,2.52,46.19,5,1.68,10.08,3.36,20.16,8.4,27.72,7.56.84,8.4,8.4,15.12,10.08,13.44-13.44-5.88-29.4-10.92-36.12,7.56.84,16.8-.84,21,3.36,6.72-3.36,14.28,1.68,21.83,3.36-1.68,15.12,5,30.24,21,31.91,5-14.27-11.76-21-15.12-32.75,6.72,2.52,9.24,0,16.8,0-.84,3.36.84,5,2.52,5,10.92,5,31.92-13.44,30.24-20.16-3.36-10.92-29.4,1.68-32.76,8.4-2.52-1.68-7.56.84-10.92-1.68,3.36-3.36,8.4-9.24,12.6-14.28,4.2-4.2,11.76-10.91,4.2-16-12.6,3.36-26,18.47-28.56,31.07-8.39.84-11.75-3.36-18.47-4.2,10.08-2.52,26-10.08,16.79-23.51-16,3.36-31.07,10.07-34.43,22.67-13.44-1.68-25.2-2.52-36.11-6.72,4.2-6.72,16.79-6.72,25.19-12.59,7.56-5,15.12-17.64,10.92-25.2-21,0-26.88,22.68-42.83,31.91-1.68,1.68-.84,5.88-3.36,6.72-3.36-3.36-14.28-1.68-22.68-1.68,11.76-9.24,23.52-17.63,37.8-24.35a13.9,13.9,0,0,0-.84-16c-11.76-.84-13.44,9.24-21.84,11.76-8.4,10.92-19.32,19.31-31.92,26-.84,2.52-3.36,3.36-3.36,5-3.36,0-9.23,2.52-14.27,3.36,18.47-21.83,39.47-40.31,60.47-59.63-.84,3.36,1.68,4.2,4.2,3.36,10.91-6.72,24.35-7.56,40.31-8.4,2.52,9.24,9.24,13.44,13.44,21,10.08,2.52,14.27,15.12,26,12.6,5-11.76-5.88-13.44-10.92-16.8-6.71-5-12.59-12.6-15.95-16.8,12.6,1.68,26,1.68,38.63,2.52,4.2,15.12,17.64,20.16,34.44,22.68,2.52-14.28-17.64-16.8-20.16-26a68.63,68.63,0,0,1,11.76-.84c6.72-10.08,36.11-22.67,16-36.11-12.6,12.6-22.68,31.91-45.36,31.91,7.56-5.88,24.36-22.67,11.76-31.91-21,4.2-25.2,37-48.71,28.55,10.08.84,32.75-26.87,14.28-28.55-10.08-.84-26.88,26-33.6,31.07-9.24,0-20.16,2.52-26,2.52,23.52-18.47,46.2-37.79,69.71-56.27,9.24,8.4,30.24,7.56,48.72,4.2,9.24-1.68,31.07-10.92,21.83-20.16-17.63,5.88-33.59-2.52-54.59.84,6.72-3.36,7.56-10.07,14.28-12.59,12.6-4.2,33.59,2.52,47.87,0,6.72-1.68,11.76-6.72,16-10.92-1.68-.84-.84-4.2-1.68-5-10.08.84-31.07-1.68-38.63,8.4-5-.84-13.44.84-16,0,10.08-20.16,35.27-21.84,58.79-18.48,1.68-4.2,5-5.88,6.72-10.92-.84-1.68-2.52-2.52-2.52-4.2-10.08-3.36-26-1.68-30.24,6.72-2.52,0-9.23,1.68-10.07.84,3.35-4.2,7.55-7.56,10.91-11.76C1878.62,716.13,1888.7,709.41,1894.58,713.61Z" transform="translate(-1254.6 -659.02)"/></svg>