<svg id="Layer_1" data-name="Layer 1" xmlns="http://www.w3.org/2000/svg" viewBox="0 0 148.69 180.72"><defs><style>.cls-1{fill:#748b6b;}</style></defs><title>Vector Smart Object2</title><path class="cls-1" d="M1628.28,999c1.87-3.12-1.87-6.44-4.57-5-1.25-1.87-2.5-5.4-6.24-3.94a14.43,14.43,0,0,1,.63,2.91c2.07.41,5.61,2.07,3.94,4.36-2.49-1.25-6.23-3.53-9.14-2.29-.83,1.25.42,1.87.42,3.33,2.28,1,4-1.25,5.82.41-13.92,7.9-33.24,10.18-52.56,11.43,10.59-4,19.94-11,30.74-13.51-.41,1.87-2.07,3.33-1,5.61,1.67.21,1.67.21,2.91-.41.21-2.08-.41-5.2,1.66-5.61s2.5,3.32,4.57,2.91c2.29-.42,1.87-3.33,0-4.57-1.45-.42-2.28.83-3.53-.63,2.08-1.66,6.44-5.4,1-6.64-1.66.83-1.24,3.74-3.32,4.36-.42-1.46-.83-3.12-2.7-3.33-2.5,1.67.41,3.54.62,5.2-10.18,1.87-17.66,8.31-26.18,10.8a242.42,242.42,0,0,0,28.47-23.68c4.77-4.57,8.93-9.77,14.33-12.88,1.25,2.08-1,1.87-1.66,3.53,2.28,6.86,4.36-1.45,5-4.36h1.87c-.2,1.66.21,2.91,1,3.53,1.87,0,2.29-.42,3.95,0,.42-4.57-2.7-5.61-5.82-6.65a14.08,14.08,0,0,1,5-3.32A3,3,0,0,0,1620,957c-.83,1.25-.21,2.91-2.29,3.33.21-3.33-1.66-4.78-2.91-6.86-1.45,0-2.7-.2-3.32.63-.42,3.53,2.08,3.53,3.74,4.36,0,1.45,1.45,3.12.41,4.57-2.49-.42-4.36-4.36-6.85-1.66-.42,2.08,1.25,2.28,1.66,3.53,1.25.21,2.7-1.66,3.32,0-17.24,15-32.4,31.58-52.76,43,.83-1.87,2.49-2.91,2.91-5,8.72-9.14,16-21.61,26.59-27.84.62,1.87-2.08.41-1.66,1.87.2,1.25,1.24,1.66,2.28,2.28,2.08-.62,1.45-4.15,2.91-5.19,1.66.42,2.28,1.87,3.53,1.66,1.66-3.32-2.28-3.32-4.36-4.57,1.24-2.49,2.28-7.68-1.66-7.89-1.67,1.66,1.24,4.15-1,5.61-1.66-.83-2.08-2.7-4.57-2.7-1,2.9,2.49,3.74,4.36,5-12.26,7.9-20.57,21.61-29.92,31.58,8.11-19.32,18.29-36.56,32.83-49.44.83.83,1,2.49,3.32,1.87,1.46-1.46,0-2.71-.62-3.95.41-.83.62-2.08,1.87-1.87,2.28,1,.62,4.36,3.32,5.19a2.53,2.53,0,0,0,1.87-3.53c-1-1.25-3.11-1.25-3.32-3.32,1.66-1.87,3.94-.63,5.81-1.67,1-2.07-.2-4.77-2.9-4.36-.83,0-.42,1.66-1,1.87-1-.41-2.08.83-2.29,0,2.7-2.08,1.25-7.48-2.7-5.19a5.38,5.38,0,0,1-.62,5.61c-2.7-.21-3.12-2.7-5.61-2.91,0,.41-.62.41-1,.62-.62,4.36,4,3.33,5.82,5a164,164,0,0,0-37,55.67c-.83-10.59,2.08-20.36,4.57-28.87,1,1.24,2.91,2.28,3.95.41-.21-1.45-2.29-1.24-2.7-2.7.83-.62.83-1.87,1.87-2.28,1.24-.21,1.66,1.24,2.7.41.83-1.87-1-2.7-2.29-3.32.83-.83,1-2.29,1.25-3.53-.83-1.67-3.53-2.08-4.37-.42-.2,1.25,1.46.83,1.25,1.87-.83.42-.62,2.08-1.66,2.29a4.23,4.23,0,0,0-3.53-.42c-.63,2.08,1.45,1.45,1.66,2.7,0,1.87.41,3.53,0,4.57-2.08,6.23-4.78,13.3-5.82,20.36a42.78,42.78,0,0,1,0-8.93c1.25-12.68,3.53-25.56,7.27-36.77a2.94,2.94,0,0,0,4,1.87c.83-2.08-.83-3.33-2.28-4.37,0-2.07-.63-3.94.41-5.61,1.66-.2,2.7,1,4,.42a5.81,5.81,0,0,0,.62-2.7c-.41,0-.83,0-.62-.62-1.87-1.25-4,.83-5.2.41-.83-.83-1-2.7-1-4.57-.84-1-3.54-1.45-4.57-.41.2,1.87,2.49,1.66,1.87,4.36-1.87,1-3.12-1-5-1-.83.83-1.66,1.45-1.45,2.91,2.07,1.45,5.4-.42,7.27,1.24-3.12.63-4,3.74-6.86,4.57.42,1.46,1.45,2.08,3.32,2.29,1.25-.83,1-2.91,2.71-3.32.2,12-4.78,22.85-5.82,33.44-1,9.14.41,18.08.62,26.18-4.78-1.66-5.19-6.44-7.48-10.8-4.15-7.9-9.55-16.21-11.42-24.93,1.45,1.66,4.36,3.11,5.61.41-.84-2.28-4.16-1-5.82-2.91-.21-2.49,2.28-2.28,2.91-3.94-.83-1.87-3.53-.63-4.57,0a3.25,3.25,0,0,1-1.25,2.91c-2.08-.63-1.25-2.91-2.91-5-2.08,0-3.53.62-3.32,2.91,2.28,0,3.32,2.91,3.53,3.53-2.29,0-6,.83-4.36,3.53,2.07-.21,5.4-1.87,7.89-1.66,3.12,11.43,10.6,20.36,13.71,30.54a304.33,304.33,0,0,1-34.69-27.84c1.87-.62,3.53-1.87,3.32-4-2.28-1.24-2.91,1.66-4.57,2.29-3.11-1-4.15-5.61-7.89-5.2.41,1.46-1,1-1,2.29.21,1.25,2.49.41,2.7,1.87-2.29-.21-2.91,1.66-2.29,3.53,1.46.42,3.95-1.66,5.61.42-1,1.24-2.07,1.66-1.66,3.32,2.7,1.45,3.33-1.87,4.36-3.32,8.52,10,20,16.82,29.5,26-10.8-5.19-24.72-8.1-37-6.23-1.25.21-3.54,1.46-4.57.42,1.24-1.46,2.49-4.16,0-5.2-2.5,1-1.67,4.16-3.12,5.2-2.29-1-.83-5.61-2.91-6.86-3.32,1.46-.41,5,0,7.48-3.32.83-5-1.87-6.85-.41-.21.41-.84,3.32.41,3.94,1.66.63,4.16-1.87,6.65-.62-1.66.41-2.29,1.66-3.33,2.7.21,1.25.63,2.29,2.29,1.87a7.87,7.87,0,0,1,4.57-4c.62,1.66-.21,4.78,1.87,5a1.79,1.79,0,0,0,1.66-1.66c.42-1.87-1.87-1.46-1.24-3.54,13.08-5,33.23.21,44.66,6.24,3.32,1.66,7.06,3.32,8.1,6.23-11.42-1.66-23.47,2.28-34.69,5.19a47.42,47.42,0,0,1-1.66-5.81c-3.95.2-1,3.53-1,5.81a5.19,5.19,0,0,1-5-.62c-1.45,1.45-1.45,3.12-.41,5,1.87.62,2.49-1.67,3.32-1a4.37,4.37,0,0,0-.41,5.61c.83.2.62-.63,1.66-.42,1-1.66-.83-4.15,1.87-5,1.87.42,1.24,3.12,2.7,4,1.66,0,1.87-1,1.87-2.7.21-1.45-1.87-1-1.66-2.7,11.63-2.49,21.39-7.06,32.82-4.57-5.61,4-11.43,7.89-16.62,12.88-8.93,8.52-19.32,16.41-23.89,28.88-1.45-.42-1.25.83-1.87,1a3.66,3.66,0,0,0-5.61-.42c-.83,2.08,1.87,2.08,1.66,3.32s-3.94,1.67-3.53,4.57c1.25.21,1.66,1,3.32.63.63-3.33,3.33-4.57,5.82-5.82.42,2.49-.41,4.16.62,6.23,1.46,0,2.71-.41,2.91-2.28-.62-1.46-1.66-2.49-1.66-4.57,2.29.83,4.16-.42,6.65,1a2.37,2.37,0,0,0-1.66-4,3.67,3.67,0,0,1-4,0c3.32-7.06,8.1-12.47,13.5-17.45,8.31-6.65,15.79-16,25.35-20.36a237.42,237.42,0,0,0-12,25.34c-3.53,8.73-7.69,18.29-9.56,28.26-.2,1,.83,3.11-1,3.53-1.87-.62-1.87-3.32-4.57-3.32a3.28,3.28,0,0,0-.62,2.7c.83,1,2.7,1.24,2.91,2.91-1.25,1.45-4,1.45-3.32,4.57a4.67,4.67,0,0,0,3.32.41c.21-1,.41-2.28,1.25-2.91h1.87c-.84,1.25,1.24,2.29,1,5,2.08,0,2.91-1.46,3.33-3.33-.83-1.66-3.74-1.24-3.53-3.94.62,0,.62-.83,1.24-1,1.87,2.7,4.37,1.45,6.24-.42-.42-.83-.42-2.28-1.67-2.28-1.87-.42-1,1.66-2.28,1.66-2.91-2.91-.63-6.23.62-10.18,4.16-12.88,8.31-26.18,14.34-35.73-5.41,23.68-1.46,52.14,5.6,70.22,2.29,5.81,4.78,11.63,7.48,17h7.27c-9.55-20.57-21.39-44.46-18.69-71,.21-2.08,1.24-3.74,1.66-5.81,1-5.41,1-11.85,3.32-17.46,4.16,14.75,3.54,31.17,4.37,48.2a14.38,14.38,0,0,1-5-1c-.62,1.46-1.45,2.91,0,4,1.87.42,1.87-1.25,3.95-.83,0,3.12-.63,4.78.62,7.48,1.66.21,1.66.21,2.91-.42,1.25-2.49-2.08-3.53-.42-5.61,1.87.63,3.12,3.74,5,3.33,1-.83,0-2.5,0-4-1.25-1-2.08-.21-2.91-1.25.21-1.87,2.49-1.87,3.53-2.9.21-2.08-1.45-2.5-3.32-2.71-.42.42-.83,2.71-1.66,1.87-1.67-17-.42-35.31-5.2-48.61,10.39,12.88,18.08,28.67,22.86,47.16-2.5.21-3.54,1.25-5.2,1.25a2.36,2.36,0,0,0,1.66,3.32c1.46.21,2.29-1.87,2.91-1.25.83,3.12-.62,8.31,4,7.48.62-2.28-2.49-4.78-1-7.89,2.49.21,2.91,2.7,5.19,3.32-.2-1.66.84-1.87,1.67-3.32,0-1.46-1.25-1.66-1.87-2.29-.63.42-.83,1.25-1.25,1.67-.62-.84-2.08-.84-2.29-1.87,1.67-.84,3.33-5.41,0-5.82-1.24.21-.62,2.49-1.66,2.91-4.57-17.45-13.71-32-21.4-45.29,21.61,9.55,39.89,24.3,50.07,44.25-2.91.21-3.11-2.29-5.19-2.7-2.29.83-1.87,4.78.62,5.19,1.25-.21,2.7-1,4.57,0-.62,3.12-4,4-3.53,8.1a4.48,4.48,0,0,0,3.53,1c1.66-1.87-.21-6.23,2.29-7.48,2.28,0,3.11,6.65,5.19,6.86,1.45.21,2.49-.83,2.29-3.53-1.87-1.66-5-2.29-5.61-5.2,2.9-.62,7.27,0,9.14-1.66a3.74,3.74,0,0,0-2.7-4,3.56,3.56,0,0,0-1.67,2.71c-1.87-.21-4.36.2-5.19,0a14.41,14.41,0,0,1,4-7.48c-.83-1-1.25-2.5-2.91-2.7-1.45,2.28-1.87,5.4-3.32,7.89a107.94,107.94,0,0,0-48.2-42.38c5.82-1.25,11,.42,16.41,2.28,7.9,2.91,16.83,4.78,22.64,8.94-3.32.62-2.07,5.81.42,5.61,1.66-1,0-2.08,1.25-3.33,2.7.63,3.11,3.74,6.65,3.53,2.49-3.73-2.91-2.7-3.54-5,1.46-.62,4.16.83,5.61-.62a3,3,0,0,0-2.7-3.33c-.62.63-.21,1.46-.62,1.66-1.25-.62-2.49,0-2.91-1,2.29-1.25,2.49-5.82-.62-5.2-1,.83-.63,3.12-1.87,3.53-.63-1.45-2.08-3.94-4-3.32-1.45,2.08,1,2.7,1.66,3.95-7.68-3.95-17.86-5.2-25.55-9.14,15.79-2.5,33.24-5,44.25-11.22-2.08,2.49-3.53,10.59,1.66,7.48-.62-3.12.21-5,1.25-7.28,1.24,1,1.66-.83,2.91-.62,2.07.62,1.24,4.16,3.53,4.57,1.66-.83,3.11-1.87,2.91-3.32C1633.47,999.19,1629.52,1001.26,1628.28,999Z" transform="translate(-1485.22 -931.48)"/></svg>