<svg id="Layer_1" data-name="Layer 1" xmlns="http://www.w3.org/2000/svg" viewBox="0 0 315.62 321.32"><defs><style>.cls-1{fill:#748b6b;}</style></defs><title>icon</title><path class="cls-1" d="M1583.83,1123.59c3-1.13,7.5-6,10.88-8.63-1.88-4.5.75-9,3-11.62C1589.46,1108.21,1586.08,1113.84,1583.83,1123.59Z" transform="translate(-1446.18 -869.01)"/><path class="cls-1" d="M1754.42,965c-2.62,0-8.62,5.62-9.75,8.62-2.25,5.62.75,14.25,3,18.37-12,45-60.36,53.24-99,71.23,17.63-19.12,28.12-45.36,29.25-81,11.62-14.62,29.62-27,24-55.49,3-3.75,2.25-13.87,1.88-20.62-3.75-3.37-6.38-10.12-13.87-7.87-4.88,13.87,2.62,20.24,6.37,28.49,1.5,3.38,1.5,17.62.75,20.62-3,10.5-12,20.62-19.5,25.87,1.88-6-3-13.87-1.87-21.74.37-1.5,1.87-3,1.87-4.5,0-2.25-1.5-5.62-1.87-7.87-1.88-15.75-1.88-24.37-19.5-23.62-6,15.37,7.13,21.74,13.13,32.24,3.74,6.37,4.87,33,4.12,42-1.13,13.87-4.87,25.12-8.62,36,1.12-17.24-9-23.24-15.38-34.87-4.12-7.49-12-22.49-12-31.11,0-4.13,2.62-9.38,2.25-14.25-.38-7.12-1.5-14.25-9-16.12-7.5,11.62-1.88,24,1.87,32.62,3,8.24,5.63,16.12,9,23.62,4.5,10.49,13.5,18.37,16.5,26.24,8.62,21-3,37.49-13.87,48.74-17.63,18.37-39.37,33-57.74,45.37-.75-14.25,0-24-1.88-40.12,4.88-16.12,18-24.37,29.25-34.49,13.87-2.63,19.87-24.37,11.62-34.87-10.12,3.75-14.25,16.87-13.12,29.62-9.38,8.62-21,17.62-27.37,27-1.5-18.74-3.38-34.12-5.63-51-.75-5.62-3-11.25-3-16.49,0-4.88,1.87-7.5,3-10.88a157.94,157.94,0,0,0,5.63-40.86c8.25-10.5,17.62-19.87,24.74-31.5,7.5-.75,18.37-6.75,19.5-16.12.75-4.5-3.75-17.62-9.75-17.24-2.25,0-8.62,9-10.87,13.87-2.63,5.25-2.25,11.24-1.88,15.37a206,206,0,0,1-22.49,28.12c-.38-6-.75-13.12-1.13-18.75,2.63-6.37,10.88-14.25,7.88-25.12-1.13-4.12-7.88-14.62-13.88-13.12-5.24,1.5-7.49,18.75-4.49,27,1.12,3.38,4.87,5.63,5.62,8.63,1.12,4.12.75,12.37,1.12,19.49,1.13,20.25-3.37,36.37-6.37,50.24-10.5-16.49-21.37-33.36-21.37-60.73,10.87-6.75,16.5-32.62-3-33.75-6,5.25-6.37,25.5-1.12,32.25-1.13,32.24,12.74,49.86,24,69.73,1.5,21.37,6.75,47.62,7.87,74.61.75,16.87.38,30.74.75,44.24,0,4.13,1.5,8.62,1.13,12.75-1.13,10.87-6.75,21-11.62,28.49.75,5.25-.38,7.88-2.25,11.63-1.88-20.25-7.5-40.87-17.62-57.37-2.63-4.12-12.75-12-13.13-18.37,0-2.62,2.63-6.75,4.13-9,1.87-3,3-6,4.5-8.62,4.87-9,11.62-15.37,13.12-26.24,1.87-13.88-4.5-21-4.5-30.37,0-5.25,1.87-10.5.75-16.12-1.5-7.88-15.75-26.25-21.37-12,6.37,18.37,23.24,32.24,19.87,57.36-1.88,16.5-16.12,26.62-21.75,40.87a80.15,80.15,0,0,0-14.24-5.63c-6-14.24-5.63-33.74-13.87-46.86,1.49-9.75-12-33-20.63-22.5-2.25,13.87,10.88,16.5,16.5,24.75,8.25,12,7.12,28.87,11.62,43.11-13.87-1.87-27-3.75-33.74-12.74-.75-2.63,1.5-2.25,1.13-4.5-2.63-3.38-7.88-6.75-12-12.75-5.63-7.87-8.25-21.37-19.5-12-2.62,13.87,7.13,18.37,15.75,23.25l11.25,8.62h0c8.24,10.87,26.62,12,40.49,15.75,5.25,1.5,11.25,2.62,15.37,5.62,3.75,2.63,7.12,8.62,10.5,13.12,10.87,14.63,17.62,28.87,19.87,51-7.13-5.25-25.87-6-25.87,6.75,6.37,5.63,18.74,4.13,27,1.13,4.5,15.37-1.87,25.49-5.62,39a1.36,1.36,0,0,1-.38,1.12h5.25a289.74,289.74,0,0,1,13.5-37.11c3-1.5,5.62-3.38,8.62-4.5,5.25,7.5,15.38,2.62,21.37,0,0-2.63,1.5-4.5,1.13-8.63-4.12-3-9.37-1.12-15-3-3.75,3-9.37,7.13-13.12,7.88,4.87-10.5,13.87-21.37,23.62-27,5.25-3,12.37-4.12,16.5-9-1.88-6-12.38-7.87-17.25-5.62,14.25-10.12,28.49-20.62,41.24-32.24,10.87-2.25,17.62-6.38,27.37-9.75,24.75-8.62,51.36-21,67.49-35.62,2.25-5.25,7.12-9,10.49-15.37,2.25-4.5,2.63-10.5,5.25-15,2.25-4.12,7.88-5.62,9-9.74C1763.42,977,1761.55,965,1754.42,965Zm-159.71,150c-3.75,2.63-7.88,7.13-10.88,8.63,2.25-9.75,5.63-15.38,13.88-19.87C1595.46,1106,1593.21,1110.46,1594.71,1115Z" transform="translate(-1446.18 -869.01)"/></svg>