<svg id="Layer_1" data-name="Layer 1" xmlns="http://www.w3.org/2000/svg" viewBox="0 0 386.97 574.88"><defs><style>.cls-1{fill:#748b6b;}</style></defs><title>Vector Smart Object3</title><path class="cls-1" d="M1482.88,796.8c-1.44,2.14-2.84,4.29-4.2,6.47,0,0-1.51,2.41-2,3.27,0,0-1.53,2.53-2,3.29,0,0-1.52,2.64-1.89,3.33,0,0-1.44,2.63-1.82,3.38l-1.73,3.43-1,3.55c-.12.67.86-.22,10.72,1.2,5.94.85,12.09-.12,17.88-1.65,10.54-2.8,20.29-10,23.53-20.65a31.1,31.1,0,0,0,.92-14c-.87-4.31-4.06-8.82-7.47-11.52a28.51,28.51,0,0,0-13.79-5.33c-3.11,4.89-7,10.22-10.19,14.89C1487.55,789.9,1485.17,793.32,1482.88,796.8Zm-85.82,48.28a23.64,23.64,0,0,0,17.45,5.12c6.84-.84,12.81-4.85,18.49-8.76,3.84-2.63,7.64-5.42,11.46-8.1-1.65-.68-3.4-1.47-5.35-2.45s-4-2-6.1-3.13-4.13-2.22-6.19-3.37c-6.54-3.64-13.86-7.92-22.35-13.1-4-2.44-7.06-4.34-8.7-5.36-.76.48-1.83,1-2.27,1.35a18.77,18.77,0,0,0-2.38,2.5,21,21,0,0,0-3.41,6.26,24.4,24.4,0,0,0-.32,13.45A28.44,28.44,0,0,0,1397.06,845.08Zm60.26-35.89c1.85,3.07,4,6,5.14,9.43.25.71.49,1.43.71,2.13l1.6-3.12,2-3.43c.41-.74,2-3.38,2-3.38.41-.69,2.09-3.32,2.09-3.32.44-.7,2.16-3.29,2.16-3.29.7-1.06,1.42-2.09,2.14-3.12,1.56-2.27,3.08-4.38,4.63-6.47,2.49-3.42,5.06-6.78,7.62-10.14,3.54-4.63,7.18-9.42,10.57-14.27a15.61,15.61,0,0,0-9.79-10.45c-5.15-1.89-10.88-1.36-16.08.27-8.35,2.6-16.09,8.27-19.54,16.48a29.88,29.88,0,0,0-1.51,16.81A47.7,47.7,0,0,0,1457.32,809.19Zm-51.43-.32c5.57,3.1,14,7.73,22.72,12.17,2.09,1.05,4.17,2.1,6.25,3.09s4.08,2,6.1,2.84c1.72.78,3.22,1.34,4.7,1.88-1.32-5.36-1.18-11.06-2.06-16.57-2.45-15.44-16.09-35.37-34-29.13a20.46,20.46,0,0,0-10.69,8.41,18.41,18.41,0,0,0-2.57,7.28,47.15,47.15,0,0,0,.37,4.84C1398.28,804.59,1401.55,806.45,1405.89,808.87Zm239.6,308.19c-1.34,7-2.73,13.15-4.25,18.81-1.25,4.59-2.49,8.52-3.8,12.1,11.38-7.29,24.81-11.37,36.82-17.78,34-18.08,69.39-65.77,40.54-102.43a50.46,50.46,0,0,0-28.11-18.12,44.8,44.8,0,0,0-19-.13c-3.75.78-12.56,5.64-12.56,5.64l-.22,8.75c-.22,5.62-.55,13.6-1.17,23.18-.7,11-1.66,22-2.82,32.66C1649.38,1093.74,1647.59,1105.94,1645.49,1117.06Zm-5.66,52.36c-5.73,11.44-6,24.94-2.39,37.23,2.4,8.29,7.65,15.58,14.06,21.39s14,10.17,21.75,13.94c5.12,2.48,10.38,4.75,15,8a31.83,31.83,0,0,1,6.42,6c.53-2.55,1-5,1.26-7.41l1.62-14.32c2.49-21.57,4.21-39.85,5-52.81.23-3.6.39-6.93.52-9.84.1-2.15.23-7.6.23-7.6l.06-5.43c-7.81-3.46-18.46-6.28-26.38-8C1654.68,1145.75,1642.25,1164.57,1639.83,1169.42Zm-70.4-239.66a117.47,117.47,0,0,1-2.18,12.4,193.79,193.79,0,0,1-7.32,24c-3.38,9.21-7.27,18.36-11,27.21-1.59,3.73-4.66,10.68-6.2,14.4,2.85-3,15.55-7.05,20.69-7.73a66.66,66.66,0,0,0,23.53-7.2c7.23-4,13.59-9.8,17.38-17.13,6-11.49,5.22-25.66.41-37.7-3-7.5-7.66-14.63-14.55-18.88-6-3.74-14-4.8-20.45-1.93h.33c0,2.1,0,4.21-.11,6.31S1569.68,927.66,1569.43,929.76Zm-12.21,115.83c-5.14,14.43-4.43,54.77,40.73,83.29,10.27,6.49,19.92,14.24,29.76,21.43a117.19,117.19,0,0,0,6.1-16.54c1.63-5.49,3.14-11.42,4.59-18.15,2.35-10.88,4.39-22.87,6.26-36.64,1.44-10.62,2.65-21.5,3.64-32.32.86-9.49,1.39-17.42,1.73-23l.45-8.72s-35.37-24.83-68.59-4.63C1568.8,1018.28,1562.35,1031.15,1557.22,1045.59Zm-45.86-78.77c3.63,8.11,9.41,15,14.65,22.23a67.42,67.42,0,0,1,9.63,17.36c2.16-5,4.67-10.41,7.24-15.8,4.09-8.62,8.32-17.53,12-26.45A189,189,0,0,0,1563,941.1a114.16,114.16,0,0,0,2.62-11.89q.49-3,.77-6c.17-1.73.24-3.47.3-5.22-5.11-5.29-12.45-11.33-19.47-13a26.58,26.58,0,0,0-18.4,2.63,38.12,38.12,0,0,0-13.72,12.87A49.24,49.24,0,0,0,1511.36,966.82Zm-37.63,127.52c3.69-2.35,7.65-4.87,11.77-6.13q-2.76-1.14-5.28-2.38l-11.31-5.62c-17.11-8.53-31.4-16-41.33-21.64-2.78-1.58-5.3-3-7.53-4.34s-4-2.41-5.55-3.36c-1.22-.75-2.1-1.33-2.83-1.8l-1.74-1.11a35,35,0,0,0,14.25,58.55c8.38,2.58,17.54,1.92,26-.61S1466.31,1099,1473.73,1094.34Zm71,126.57a176.59,176.59,0,0,0-32.27,4.9,238.78,238.78,0,0,0-27.42,8.39,191.67,191.67,0,0,0-18.62,8c-2.17,1.11-3.86,2-5,2.65l-1.13.65c-.77,3.21-3.68,8.23-4.13,11a37.38,37.38,0,0,0,.86,16.23A42.68,42.68,0,0,0,1474,1296c33.19,23,73.52-9.35,88-39.15,5.17-10.66,8.22-22.38,14.24-32.45-7.08-2.4-15.57-3.62-25.21-3.62Q1547.9,1220.74,1544.75,1220.91Zm147.16,66.38a156.34,156.34,0,0,0,7.55-24,100.87,100.87,0,0,0,2.11-14.11c.33-4.76.66-9.57,1-14.41,1.36-19.28,2.48-38.63,2.73-53.14.1-3.62.13-7,.11-9.91s-.06-5.52-.07-7.64-.15-3.77-.17-4.9-.06-1.74-.06-1.74,0,.6,0,1.74,0,2.78,0,4.89-.11,4.7-.23,7.63-.3,6.26-.54,9.87c-.86,14.46-2.79,33.71-5,52.91-.56,4.78-1.11,9.6-1.64,14.32a94.42,94.42,0,0,1-2.66,13.41,151.06,151.06,0,0,1-8.38,22.85c-3,6.52-5.7,11.88-7.59,15.62l-2.33,4.54c-1.29-1.57-2.58-3.15-4-4.8q-5.1-6.2-10.86-13.17c-3.72-4.73-7.5-9.83-11.53-15.09-2-2.62-4-5.32-6.13-8.06s-4.28-5.49-6.28-8.46c-4.1-5.84-8.34-11.9-12.7-18.09-2.17-3.12-4.44-6.24-6.59-9.47s-4.25-6.58-6.43-9.94c-1.46-2.26-3-4.54-4.44-6.85h0c-.6-17.19,16.73-44.16,18.93-47.5l1.87-2.83c.81-1.21,1.62-2.57,2.33-3.89s1.4-2.72,2-4.1a122,122,0,0,0,6-17.66c1.63-6.11,3-12.38,4.22-18.66,2.37-12.57,4.07-25.24,5.38-37.13s2.19-23,2.82-32.56.94-17.52,1.15-23.08.23-8.75.23-8.75-.16,3.18-.45,8.75-.89,13.5-1.75,23-2.06,20.61-3.65,32.42-3.61,24.42-6.3,36.83c-1.34,6.2-2.85,12.37-4.63,18.32a123.47,123.47,0,0,1-6.29,17c-.62,1.32-1.3,2.58-2,3.81s-1.43,2.36-2.23,3.52c-1.7,2.34-3.34,4.62-5,6.83-3.21,4.47-6.21,8.72-8.85,12.77a169.49,169.49,0,0,0-11.64,20.36c0,.1-.08.17-.12.27-.3-.47-.62-.93-.89-1.41-8.44-14.27-17.47-28.84-25.57-44.26-8.61-15.16-16.16-31.17-24.12-47-7.22-16.14-14.87-32.14-21.19-48.39-3.46-8.12-6.58-16.28-9.59-24.39a107.39,107.39,0,0,1,11.79-13.25h0l8.73-8.17.07-.07a2.23,2.23,0,0,0,.47-.68c6-15.27,13-30.31,18.75-45.86a196,196,0,0,0,7.25-23.76,118.58,118.58,0,0,0,2.16-12.23c.24-2.05.42-4.12.53-6.18s.13-4.13.09-6.2q-.06,3.1-.34,6.18c-.2,2-.46,4.1-.79,6.12a117.08,117.08,0,0,1-2.66,12,193.24,193.24,0,0,1-8.19,23.26c-6.26,15-13.73,29.53-20.44,44.52l-20,17.12c-2-5.49-4-11-6-16.33-.74-1.94-1.35-3.92-2-5.87s-1.26-3.91-1.89-5.85c-1.25-3.89-2.48-7.73-3.72-11.54s-2.45-7.56-3.65-11.28-2.13-7.46-3.19-11.13q-3.11-11-6-21.36c-1-3.44-1.75-6.89-2.59-10.24l-2.39-9.9c-1.54-6.46-3.1-12.64-4.42-18.56s-2.34-11.58-3.41-16.88-2.06-10.26-3-14.85-1.46-8.86-2.1-12.68a85.14,85.14,0,0,0-1.87-8.59c0-.09,0-.18,0-.28l-1.25-5.65h0v0l-.35-1.59-.13-.27c-1-4-2.9-14-.62-22.3l.87-1.84L1470,816c.58-1.15,1.22-2.27,1.82-3.4s1.27-2.23,1.9-3.36,1.32-2.21,2-3.31,1.35-2.2,2-3.29c1.36-2.19,2.77-4.35,4.21-6.5,5.7-8.61,11.38-16.2,16.88-25-5.9,8.5-12,15.77-18.07,24.15-1.54,2.08-3,4.18-4.53,6.32-.74,1.06-1.49,2.13-2.21,3.21s-1.45,2.15-2.14,3.26-1.42,2.2-2.08,3.31-1.36,2.22-2,3.36l-1.94,3.4-1.83,3.47a24.23,24.23,0,0,0-2,8.81s-.25.15-.67.37a11.83,11.83,0,0,1-1.93.78,16.81,16.81,0,0,1-7.81.2,49.2,49.2,0,0,1-11.11-3.76c-2-.89-4-1.86-6.14-2.85s-4.17-2.05-6.26-3.11c-8.37-4.25-16.62-8.77-22.77-12.18s-8.73-4.94-8.73-4.94,2.48,1.65,8.5,5.32,14.1,8.5,22.32,13.08c2.06,1.14,4.12,2.27,6.17,3.36s4.09,2.15,6.07,3.11a52.52,52.52,0,0,0,11.45,4.46,22.38,22.38,0,0,0,5.05.61,16.6,16.6,0,0,0,4-.48,14.65,14.65,0,0,0,1.8-.59,37.63,37.63,0,0,0,.35,3.89l.25,1.62.18.85h0c.54,3.91,1.53,10.94,2.91,20.73.58,3.87,1.09,8.17,1.88,12.81l2.71,15q1.46,8,3.09,17.07c1.2,6,2.67,12.24,4.08,18.79q1.08,4.92,2.21,10c.78,3.4,1.43,6.89,2.41,10.38s2,7.48,2.92,11.23l-3.67.64c-3.19.52-7.73,1.3-13.14,1.72a71,71,0,0,1-8.7.14c-1.64-.09-3.12-.22-4.73-.45a47.35,47.35,0,0,1-4.84-.93,38.21,38.21,0,0,1-9.52-3.71,32.41,32.41,0,0,1-4.33-2.95c-.32-.26-.73-.58-1-.82s-.68-.65-1-1c-.62-.65-1.23-1.27-1.87-1.95-5.07-5.42-10-11-14.64-16.24l-12.59-14.36c-7.33-8.43-12.12-14.16-12.12-14.16s4.48,6,11.39,14.76c3.46,4.39,7.51,9.51,11.85,15s9,11.28,13.85,17c.59.7,1.26,1.44,1.89,2.17l1,1c.4.43.73.69,1.1,1.05a35.87,35.87,0,0,0,4.65,3.51,42.68,42.68,0,0,0,10.26,4.62,51,51,0,0,0,5.23,1.27c1.68.34,3.5.58,5,.74a75.9,75.9,0,0,0,9.34.32c5.75-.14,10.45-.71,13.72-1.07l4.38-.55c.4,1.56.78,3,1.2,4.6,1,3.71,1.9,7.51,3,11.3s2.29,7.6,3.45,11.46,2.34,7.75,3.54,11.71c.58,2,1.19,4,1.78,5.93s1.17,4,1.88,6c5.49,15.84,10.82,32.35,17.42,48.71,3.52,9.63,7.51,19.17,11.59,28.72l-.58,0c-3.68-.24-8.93-.56-15.16-1.25a133.74,133.74,0,0,1-20.94-3.84,83.47,83.47,0,0,1-11.29-4l-11.51-5.13c-15.44-6.89-30.78-14-42.07-19.77-2.82-1.45-5.4-2.79-7.67-4s-4.24-2.31-5.84-3.22-2.86-1.64-3.72-2.15l-1.31-.76,1.28.82c.83.54,2,1.35,3.62,2.32s3.48,2.16,5.72,3.46,4.74,2.77,7.5,4.33c11.05,6.26,26.11,14,41.26,21.58,3.78,1.89,7.58,3.79,11.31,5.63a85.32,85.32,0,0,0,11.54,4.71,139,139,0,0,0,21.45,5c6.34,1,11.64,1.59,15.34,2l3.68.41c2.08,4.84,4.17,9.68,6.23,14.54,7.73,16.15,15.07,32.52,23.47,48,7.89,15.79,16.75,30.73,25,45.36,1,1.84,2.12,3.61,3.23,5.38s2.17,3.54,3.27,5.29l6.45,10.43c1.64,2.62,3.24,5.22,4.85,7.8l-1.3-.75c-3.66-2.12-7.66-4.44-11.87-6.85-2.09-1.2-4.16-2.52-6.66-3.71a51,51,0,0,0-7.55-2.95,73.64,73.64,0,0,0-16.49-2.88,116,116,0,0,0-17.08.2,186.66,186.66,0,0,0-32.84,6.06,240.6,240.6,0,0,0-27.47,9.41,201.59,201.59,0,0,0-18.56,8.73c-2.16,1.18-3.84,2.14-5,2.83s-1.72,1.07-1.72,1.07.61-.36,1.76-1,2.86-1.58,5.07-2.68a198.22,198.22,0,0,1,18.77-8.12,238.89,238.89,0,0,1,27.6-8.45,181.26,181.26,0,0,1,32.56-4.94c11.15-.56,22.44.26,32.15,3.56a49.41,49.41,0,0,1,6.87,2.92c2.09,1.1,4.2,2.5,6.26,3.79,4.12,2.58,8,5,11.58,7.28q5.9,3.69,10.55,6.63l1.33,2q6.45,9.6,12.55,18.63c2,3.06,4.16,5.87,6.2,8.71s4.09,5.6,6.06,8.32c4,5.43,7.73,10.68,11.42,15.59s7.47,9.43,10.86,13.73,6.61,8.34,9.54,12.08,5.83,6.88,8.35,9.87l.85,1h22l-10.49-11.79c-2-2.31-4.32-4.84-6.66-7.55-.46-6.91,3.74-17.07,4-17.68C1689.29,1293.71,1690.58,1290.65,1691.91,1287.29Zm-232.23-45,.17-.09c1.15-.7,2.85-1.69,5-2.88a202.17,202.17,0,0,1,18.71-8.8,240.87,240.87,0,0,1,27.65-9.46,186.55,186.55,0,0,1,33.11-6.11c3.43-.28,6.89-.42,10.33-.42,2.34,0,4.67,0,7,.21a75.66,75.66,0,0,1,16.82,2.94c.26.09.46.2.72.29-7.21-8.65-14.16-17.65-21.35-26.26-9.35-11.2-19.24-22.79-32.84-28.49-12.29-5.13-30.21-4.23-42.63.8s-20.05,11.84-26.74,23.23c-4.89,8.32-7.21,20-6.83,29.5a43,43,0,0,0,3.21,14.65,37.61,37.61,0,0,0,3.4,6.43C1456.19,1238.92,1458.45,1240.78,1459.68,1242.26Zm-53.23-354.93a27.8,27.8,0,0,0-6.92,6.46,24.19,24.19,0,0,0-2.43,3.87c-.49,1-.86,3.86-1.55,4.54a3.82,3.82,0,0,1-.53.23c1.76,2.09,5.73,6.76,11.07,12.91l13.61,15.51c4.32,4.87,8.9,10,13.58,15l1.88,2,1,.92.88.74a29.43,29.43,0,0,0,4.09,2.78,35,35,0,0,0,6.08,2.6c2.24-5.92,4.62-11.86,6.78-17.78,3.14-8.58,6.32-17.57,5.16-26.62a31.41,31.41,0,0,0-12.32-20.71,37.72,37.72,0,0,0-23.19-7.28A32.39,32.39,0,0,0,1406.45,887.33Zm338.75,280.24a41,41,0,0,0-38.24-8.71c.06,1.69.15,4.3.16,5.19l.08,7.66c0,3,0,6.3-.11,9.94-.23,12.89-1.14,30.8-2.74,53.24l-1,14.4c-.19,2.74-.6,5.62-1.08,8.57,3.75-4.07,9.16-6.89,14.23-9.48,9-4.57,17.69-9.7,25.07-16.51s13.38-15.44,15.7-25.2A41,41,0,0,0,1745.2,1167.57ZM1420,960.32c5.78-.54,11.54-1.94,17.29-2.58a37.74,37.74,0,0,1-4.49-3.39c-.66-.62-.91-.84-1.19-1.13l-1.68-1.84-1.23-1.43c-4.48-5.31-8.81-10.71-12.9-15.83L1403,917.9c-6.39-8.14-10.67-13.8-11.29-14.62a24.85,24.85,0,0,0-4.5.81,23.68,23.68,0,0,0-8.5,5.7,27,27,0,0,0-7.28,16.48C1369.32,951.31,1399.38,962.26,1420,960.32Zm67.32,76c-1.51-7.39-4.66-14.6-9.84-20.11-7.68-8.15-19.09-11.88-30.28-12.65-4.74-.32-9.61-.15-14.07,1.51-7.13,2.67-12.45,9-15.49,16-2.93,6.79-5,16.85-5.82,24.38l1.18.69c.78.46,1.77,1.06,3,1.73,1.62.9,3.58,2,5.83,3.19s4.84,2.57,7.65,4c10.13,5.18,24.65,12,42,19.75L1483,1080c2.09.92,4.39,1.75,6.78,2.55a26.85,26.85,0,0,1-2.22-8.67c-.4-5,.24-9.94.63-14.89C1488.79,1051.4,1488.85,1043.75,1487.34,1036.34Z" transform="translate(-1371.32 -758.56)"/></svg>